# Blender v2.79 (sub 0) OBJ File: 'Working.blend'
# www.blender.org
mtllib Working.mtl
o Plane.001_Plane.002
v 19.734539 0.000000 10.000000
v 39.734539 0.000000 10.000000
v 19.734539 0.000000 -10.000000
v 39.734539 0.000000 -10.000000
v 19.734539 22.181587 10.000000
v 39.734539 22.181587 10.000000
v 19.734539 22.181587 -10.000000
v 39.734539 22.181587 -10.000000
v 19.734539 0.000000 -118.096649
v 39.734539 0.000000 -118.096649
v 19.734539 22.181587 -118.096649
v 39.734539 22.181587 -118.096649
v 123.378143 0.000000 10.000000
v 123.378143 0.000000 -10.000000
v 123.378143 22.181587 10.000000
v 123.378143 22.181587 -10.000000
v 19.734539 0.000000 87.100082
v 39.734539 0.000000 87.100082
v 19.734539 22.181587 87.100082
v 39.734539 22.181587 87.100082
v -8.995891 0.000000 10.000000
v -8.995891 0.000000 -10.000000
v -8.995891 22.181587 10.000000
v -8.995891 22.181587 -10.000000
vn 0.0000 1.0000 0.0000
vn 0.0000 -1.0000 0.0000
vn 1.0000 0.0000 0.0000
vn -1.0000 0.0000 0.0000
vn 0.0000 0.0000 1.0000
vn 0.0000 0.0000 -1.0000
usemtl None
s off
f 1//1 2//1 4//1 3//1
f 5//2 7//2 8//2 6//2
f 8//2 16//2 15//2 6//2
f 5//2 23//2 24//2 7//2
f 3//3 9//3 11//3 7//3
f 2//4 18//4 20//4 6//4
f 10//5 12//5 11//5 9//5
f 7//2 11//2 12//2 8//2
f 4//1 10//1 9//1 3//1
f 8//4 12//4 10//4 4//4
f 13//4 15//4 16//4 14//4
f 2//1 13//1 14//1 4//1
f 6//6 15//6 13//6 2//6
f 4//5 14//5 16//5 8//5
f 17//6 19//6 20//6 18//6
f 6//2 20//2 19//2 5//2
f 1//1 17//1 18//1 2//1
f 5//3 19//3 17//3 1//3
f 22//3 24//3 23//3 21//3
f 3//1 22//1 21//1 1//1
f 7//5 24//5 22//5 3//5
f 1//6 21//6 23//6 5//6
